#!OML:ASF E:\Steps\Project 1\Capture day 1\Session 2\Subject.ASF
:FULLY-SPECIFIED
:DEGREES
525
root 12.3506 18.7717 7.42998 -155.366 2.01634 177.316
lowerback -31.8399 -3.60519 -8.32393
upperback -1.76841 -0.522158 -1.12467
thorax 14.6642 -0.31199 3.14364
lowerneck -5.38193 -2.2558 -1.32193
upperneck 2.60226 -3.05673 5.27422
head 1.86175 -1.37956 1.80578
rclavicle 5.81445e-015 -4.05521e-014
rhumerus -32.8388 -22.0698 -78.1387
rradius 25.3949
rwrist 3.56816
rhand -9.01472 -411.104
rfingers 7.12502
rthumb 16.9323 -80.3862
lclavicle 5.81445e-015 -4.05521e-014
lhumerus -26.2075 13.8836 78.2051
lradius 11.7135
lwrist -18.928
lhand -21.5889 -12.5031
lfingers 7.12502
lthumb 4.80577 17.4224
rfemur -20.9816 7.15708 19.2208
rtibia 7.80473
rfoot -19.8646 -1.4809
rtoes -16.2184
lfemur -20.8782 -9.74223 -23.2357
ltibia 9.30086
lfoot -9.79885 -2.95527
ltoes -14.126
526
root 12.3484 18.7703 7.43056 -155.385 1.95333 177.375
lowerback -31.855 -3.60299 -8.28093
upperback -1.74091 -0.545286 -1.08614
thorax 14.706 -0.32598 3.15263
lowerneck -5.39652 -2.2606 -1.42388
upperneck 2.58045 -3.05798 5.3892
head 1.8626 -1.37786 1.86139
rclavicle 1.2424e-015 3.18055e-014
rhumerus -33.0544 -22.9526 -77.522
rradius 24.799
rwrist 4.47249
rhand -8.83048 -411.224
rfingers 7.12502
rthumb 17.1096 -80.4902
lclavicle 1.2424e-015 3.18055e-014
lhumerus -26.4581 15.5078 77.2922
lradius 11.2344
lwrist -20.5347
lhand -21.1105 -11.9485
lfingers 7.12502
lthumb 5.26765 17.9661
rfemur -20.9373 7.13478 19.3036
rtibia 7.80699
rfoot -19.9245 -1.46207
rtoes -15.901
lfemur -20.814 -9.696 -23.1766
ltibia 9.20328
lfoot -9.75062 -3.07928
ltoes -13.2051
527
root 12.3475 18.7691 7.4335 -155.359 1.847 177.488
lowerback -31.8462 -3.5986 -8.20588
upperback -1.73978 -0.584309 -1.01762
thorax 14.7089 -0.343042 3.17135
lowerneck -5.40451 -2.28998 -1.52553
upperneck 2.51213 -3.08965 5.48863
head 1.84788 -1.39256 1.91075
rclavicle -5.61567e-015 -4.21423e-014
rhumerus -33.3629 -23.4976 -77.0234
rradius 24.4281
rwrist 5.03734
rhand -8.82244 -411.504
rfingers 7.12502
rthumb 17.1174 -80.7701
lclavicle -5.61567e-015 -4.21423e-014
lhumerus -26.7935 16.048 76.7794
lradius 11.0585
lwrist -20.9815
lhand -21.1677 -12.2273
lfingers 7.12502
lthumb 5.21242 17.6886
rfemur -20.96 7.22291 19.4387
rtibia 7.80757
rfoot -19.9218 -1.58471
rtoes -15.514
lfemur -20.8434 -9.55439 -23.0528
ltibia 9.17369
lfoot -9.66677 -3.23741
ltoes -13.277
528
root 12.3471 18.7676 7.43481 -155.365 1.8579 177.561
lowerback -31.8727 -3.53838 -8.18085
upperback -1.72663 -0.516958 -1.00518
thorax 14.7289 -0.314798 3.19915
lowerneck -5.32047 -2.31794 -1.62773
upperneck 2.42926 -3.11962 5.68659
head 1.81453 -1.40435 1.99324
rclavicle -2.83268e-015 3.10104e-014
rhumerus -33.7339 -23.8713 -76.6275
rradius 24.1726
rwrist 5.26166
rhand -8.81056 -412.118
rfingers 7.12502
rthumb 17.1288 -81.3831
lclavicle -2.83268e-015 3.10104e-014
lhumerus -27.1352 15.2665 76.7618
lradius 11.1853
lwrist -20.1856
lhand -21.4684 -12.3056
lfingers 7.12502
lthumb 4.92209 17.6173
rfemur -20.9902 7.49394 19.4667
rtibia 7.83882
rfoot -19.8919 -1.80168
rtoes -15.3568
lfemur -20.8372 -9.42757 -22.9666
ltibia 9.13901
lfoot -9.59193 -3.27932
ltoes -13.7282
529
root 12.3458 18.7683 7.43786 -155.306 1.81385 177.443
lowerback -31.9802 -3.5673 -8.33615
upperback -1.69946 -0.472736 -1.04074
thorax 14.8015 -0.304541 3.25997
lowerneck -5.23034 -2.3548 -1.65698
upperneck 2.33738 -3.164 5.84294
head 1.7751 -1.42376 2.04864
rclavicle -2.83268e-015 2.62396e-014
rhumerus -34.0458 -24.4267 -76.1747
rradius 23.8142
rwrist 5.56891
rhand -8.85942 -412.528
rfingers 7.12502
rthumb 17.0818 -81.7966
lclavicle -2.83268e-015 2.62396e-014
lhumerus -27.3888 15.3095 76.4223
lradius 11.0959
lwrist -20.304
lhand -21.617 -12.0939
lfingers 7.12502
lthumb 4.77863 17.8322
rfemur -21.0797 7.50749 19.3062
rtibia 7.89334
rfoot -19.9539 -1.91697
rtoes -15.37
lfemur -20.8703 -9.43662 -23.0978
ltibia 9.05647
lfoot -9.48676 -3.44439
ltoes -12.7294
530
root 12.3455 18.7681 7.44216 -155.343 1.82087 177.505
lowerback -31.9295 -3.53605 -8.30423
upperback -1.67795 -0.46004 -1.02335
thorax 14.8037 -0.302085 3.26748
lowerneck -5.19772 -2.34626 -1.75989
upperneck 2.25969 -3.14438 6.00732
head 1.74998 -1.41131 2.12201
rclavicle -1.05356e-014 5.80451e-014
rhumerus -34.279 -25.0397 -75.6724
rradius 23.2735
rwrist 6.0228
rhand -9.13666 -412.232
rfingers 7.12502
rthumb 16.8149 -81.5241
lclavicle -1.05356e-014 5.80451e-014
lhumerus -27.6801 16.063 75.7849
lradius 10.8612
lwrist -21.023
lhand -21.5804 -12.1097
lfingers 7.12502
lthumb 4.81393 17.8156
rfemur -21.1323 7.64644 19.3601
rtibia 8.03715
rfoot -20.007 -2.0305
rtoes -15.3504
lfemur -20.7537 -9.35281 -23.0063
ltibia 8.83128
lfoot -9.36748 -3.47862
ltoes -12.4432
531
root 12.3439 18.7679 7.44681 -155.219 1.85235 177.405
lowerback -31.9719 -3.58662 -8.40754
upperback -1.76514 -0.45982 -1.05333
thorax 14.7193 -0.292032 3.2905
lowerneck -5.1366 -2.31472 -1.76658
upperneck 2.40972 -3.11048 6.06922
head 1.78816 -1.39132 2.14577
rclavicle 2.5345e-015 -2.22639e-014
rhumerus -34.6391 -25.6646 -75.1293
rradius 22.7073
rwrist 6.49437
rhand -9.25531 -411.956
rfingers 7.12502
rthumb 16.7007 -81.2573
lclavicle 2.5345e-015 -2.22639e-014
lhumerus -28.1688 16.125 75.354
lradius 10.8535
lwrist -21.0847
lhand -21.5877 -11.9979
lfingers 7.12502
lthumb 4.80685 17.9276
rfemur -21.3586 7.5713 19.1956
rtibia 8.1387
rfoot -20.0017 -1.90978
rtoes -15.123
lfemur -20.8597 -9.30426 -23.1265
ltibia 8.75137
lfoot -9.27349 -3.51837
ltoes -13.3403
532
root 12.3399 18.765 7.45135 -155.347 1.55806 177.746
lowerback -31.7092 -3.507 -8.03795
upperback -1.80441 -0.549013 -0.977291
thorax 14.5715 -0.311434 3.14329
lowerneck -5.05845 -2.31658 -1.71896
upperneck 2.48477 -3.11948 6.10517
head 1.79879 -1.39375 2.14948
rclavicle -1.09829e-014 -4.77083e-015
rhumerus -35.1044 -26.2305 -74.6113
rradius 22.3493
rwrist 6.93389
rhand -9.07923 -412.062
rfingers 7.12502
rthumb 16.8702 -81.3495
lclavicle -1.09829e-014 -4.77083e-015
lhumerus -28.6225 15.9943 75.0305
lradius 10.8803
lwrist -21.0346
lhand -21.8086 -12.0176
lfingers 7.12502
lthumb 4.59362 17.9126
rfemur -21.1398 7.56471 19.6679
rtibia 8.04933
rfoot -19.9854 -1.92317
rtoes -14.6456
lfemur -20.7618 -9.28844 -22.688
ltibia 8.78697
lfoot -9.18301 -3.67566
ltoes -13.4049
533
root 12.3378 18.7675 7.45309 -155.351 1.46501 177.564
lowerback -31.7676 -3.59 -8.25264
upperback -1.72599 -0.568307 -1.0077
thorax 14.6895 -0.340208 3.21479
lowerneck -5.11388 -2.31347 -1.74189
upperneck 2.38544 -3.10879 6.18089
head 1.77852 -1.3863 2.1784
rclavicle -3.62782e-015 4.77083e-015
rhumerus -35.3009 -26.646 -74.2337
rradius 21.9743
rwrist 7.32093
rhand -9.11498 -412.016
rfingers 7.12502
rthumb 16.8358 -81.3063
lclavicle -3.62782e-015 4.77083e-015
lhumerus -28.88 17.1923 74.2526
lradius 10.643
lwrist -22.2543
lhand -21.9633 -12.3391
lfingers 7.12502
lthumb 4.44419 17.5943
rfemur -21.1201 7.48595 19.4755
rtibia 8.09083
rfoot -20.0295 -2.08805
rtoes -14.632
lfemur -20.7893 -9.25438 -22.9179
ltibia 8.8238
lfoot -9.20078 -3.87775
ltoes -13.8929
534
root 12.337 18.7664 7.45425 -155.321 1.52383 177.501
lowerback -31.9441 -3.61296 -8.37906
upperback -1.62214 -0.538198 -0.999219
thorax 14.884 -0.348837 3.30034
lowerneck -5.26549 -2.29737 -1.73389
upperneck 2.38985 -3.08698 6.13211
head 1.80478 -1.37433 2.16083
rclavicle 2.5842e-015 -2.8625e-014
rhumerus -35.3781 -27.0774 -73.8564
rradius 21.5171
rwrist 7.76432
rhand -9.2815 -412.13
rfingers 7.12502
rthumb 16.6754 -81.4341
lclavicle 2.5842e-015 -2.8625e-014
lhumerus -29.1408 18.5999 73.4271
lradius 10.4325
lwrist -23.6159
lhand -22.0353 -12.3273
lfingers 7.12502
lthumb 4.37465 17.6075
rfemur -21.2235 7.58265 19.37
rtibia 8.22664
rfoot -20.1136 -2.24935
rtoes -15.1307
lfemur -20.8455 -9.16903 -23.0201
ltibia 8.89138
lfoot -9.38791 -3.91644
ltoes -14.9583
535
root 12.3366 18.7651 7.45901 -155.255 1.56192 177.533
lowerback -32.0276 -3.61352 -8.38527
upperback -1.58713 -0.538801 -0.953063
thorax 14.962 -0.357084 3.35236
lowerneck -5.38328 -2.2818 -1.76691
upperneck 2.37936 -3.06306 6.03269
head 1.81964 -1.365 2.13407
rclavicle 1.3418e-015 3.10104e-014
rhumerus -35.6884 -27.9576 -73.1592
rradius 21.101
rwrist 8.77701
rhand -9.11052 -412.26
rfingers 7.12502
rthumb 16.84 -81.5495
lclavicle 1.3418e-015 3.10104e-014
lhumerus -29.4197 18.7626 73.1427
lradius 10.4519
lwrist -23.6824
lhand -22.1127 -12.1278
lfingers 7.12502
lthumb 4.29994 17.8085
rfemur -21.4011 7.60719 19.3827
rtibia 8.35138
rfoot -20.1767 -2.22329
rtoes -15.4441
lfemur -20.9631 -9.21228 -22.9564
ltibia 8.94291
lfoot -9.50808 -3.87794
ltoes -15.398
536
root 12.339 18.7651 7.46452 -155.265 1.49834 177.649
lowerback -31.9925 -3.60412 -8.34252
upperback -1.56095 -0.567044 -0.886385
thorax 14.9819 -0.375198 3.39072
lowerneck -5.39395 -2.2856 -1.83426
upperneck 2.27838 -3.05934 6.0446
head 1.79037 -1.36511 2.14982
rclavicle -1.54058e-015 2.22639e-014
rhumerus -36.1649 -29.1315 -72.2434
rradius 20.6493
rwrist 10.1317
rhand -8.68838 -411.647
rfingers 7.12502
rthumb 17.2464 -80.9021
lclavicle -1.54058e-015 2.22639e-014
lhumerus -29.6949 18.7198 72.9164
lradius 10.4928
lwrist -23.5818
lhand -22.0451 -12.173
lfingers 7.12502
lthumb 4.36522 17.762
rfemur -21.4587 7.7735 19.5143
rtibia 8.45223
rfoot -20.2595 -2.31587
rtoes -15.3712
lfemur -20.9948 -9.2133 -22.7604
ltibia 8.94436
lfoot -9.49575 -3.85649
ltoes -15.9627
537
root 12.3338 18.7687 7.47274 -155.093 1.53755 177.333
lowerback -32.1248 -3.68442 -8.62321
upperback -1.58608 -0.510736 -1.00265
thorax 15.0007 -0.353879 3.43537
lowerneck -5.42523 -2.33538 -1.7441
upperneck 2.30777 -3.13181 6.06841
head 1.80723 -1.39747 2.13888
rclavicle -2.5842e-015 3.65764e-014
rhumerus -36.6556 -30.1478 -71.4737
rradius 20.2603
rwrist 11.1768
rhand -8.24576 -411.253
rfingers 7.12502
rthumb 17.6724 -80.4701
lclavicle -2.5842e-015 3.65764e-014
lhumerus -29.9298 18.7476 72.5783
lradius 10.4943
lwrist -23.7154
lhand -21.9221 -12.1626
lfingers 7.12502
lthumb 4.48395 17.77
rfemur -21.7386 7.67035 19.1006
rtibia 8.54731
rfoot -20.3586 -2.24269
rtoes -15.3053
lfemur -21.2294 -9.22987 -23.1568
ltibia 9.02164
lfoot -9.52114 -3.93481
ltoes -16.9717
538
root 12.3303 18.7703 7.48358 -155.002 1.52369 177.288
lowerback -32.1395 -3.69276 -8.65055
upperback -1.58529 -0.500305 -1.03713
thorax 15.0062 -0.348531 3.41644
lowerneck -5.52558 -2.37716 -1.63664
upperneck 2.36757 -3.19571 6.04625
head 1.84437 -1.42533 2.10966
rclavicle 3.8763e-015 1.59028e-015
rhumerus -36.9617 -30.7981 -70.9598
rradius 19.9217
rwrist 11.8123
rhand -8.23087 -411.47
rfingers 7.12502
rthumb 17.6867 -80.6852
lclavicle 3.8763e-015 1.59028e-015
lhumerus -30.1269 18.7902 72.2641
lradius 10.5008
lwrist -23.7445
lhand -21.9201 -12.046
lfingers 7.12502
lthumb 4.48588 17.8865
rfemur -21.9102 7.66374 19.0288
rtibia 8.58805
rfoot -20.3713 -2.27389
rtoes -15.6392
lfemur -21.3803 -9.2428 -23.1964
ltibia 9.04954
lfoot -9.56013 -3.95581
ltoes -17.712
539
root 12.3293 18.7701 7.49009 -155.041 1.4009 177.523
lowerback -32.1031 -3.65356 -8.45539
upperback -1.5259 -0.559283 -0.946318
thorax 15.0689 -0.378244 3.38693
lowerneck -5.61493 -2.41271 -1.56174
upperneck 2.39769 -3.24793 5.92366
head 1.86732 -1.4527 2.0534
rclavicle 1.39149e-015 2.38542e-015
rhumerus -37.0846 -31.0262 -70.6865
rradius 19.602
rwrist 12.0362
rhand -8.42935 -411.812
rfingers 7.12502
rthumb 17.4957 -81.0449
lclavicle 1.39149e-015 2.38542e-015
lhumerus -30.3389 19.3884 71.7747
lradius 10.3866
lwrist -24.1626
lhand -21.9806 -12.007
lfingers 7.12502
lthumb 4.42753 17.9267
rfemur -21.8565 7.68904 19.3498
rtibia 8.57893
rfoot -20.2668 -2.33455
rtoes -16.032
lfemur -21.3393 -9.1777 -22.8882
ltibia 8.945
lfoot -9.39445 -3.94053
ltoes -18.0378
